<svg id="Layer_1" data-name="Layer 1" xmlns="http://www.w3.org/2000/svg" viewBox="0 0 463.04 59.49"><defs><style>.cls-1{fill:#e7b809;}.cls-2{fill:#aeb94c;}.cls-3{fill:#76b3ce;}.cls-4{fill:gray;}</style></defs><title>CTL logo green-2 lines-v2 CTL</title><path class="cls-1" d="M46.66,54v8.33L31.83,47.46,46.66,32.63V41H73.71a29.74,29.74,0,1,0,0,13Z" transform="translate(-14.94 -17.74)"/><path class="cls-2" d="M80.38,41.08H103V18.14A29.78,29.78,0,0,0,80.38,41.08ZM116,18.15V41.08h22.6A29.78,29.78,0,0,0,116,18.15Zm0,58.06A29.79,29.79,0,0,0,138.39,54.3H116Zm-13,0V54.3H80.61A29.79,29.79,0,0,0,103,76.22Z" transform="translate(-14.94 -17.74)"/><path class="cls-3" d="M181.21,18.28V41.53h23.1A29.78,29.78,0,0,0,181.21,18.28Zm0,36.68h-13V18.48A29.75,29.75,0,1,0,204,54.75" transform="translate(-14.94 -17.74)"/><path d="M235.53,35.83c-.1-2.09-.22-4.61-.19-6.79h-.07c-.53,2-1.2,4.15-1.92,6.19l-2.35,7h-2.28l-2.16-6.91c-.62-2.06-1.2-4.27-1.63-6.29h0c-.07,2.11-.17,4.68-.29,6.89l-.36,6.5h-2.76l1.08-16.18h3.89l2.11,6.5c.58,1.9,1.08,3.82,1.49,5.62h.07c.43-1.75,1-3.74,1.61-5.64l2.23-6.48h3.84l.94,16.18h-2.88Z" transform="translate(-14.94 -17.74)"/><path d="M244.67,26.25V42.43h-3V26.25Z" transform="translate(-14.94 -17.74)"/><path d="M251.15,28.73h-4.61V26.25h12.22v2.47h-4.66v13.7h-3V28.73Z" transform="translate(-14.94 -17.74)"/><path class="cls-4" d="M277,41.9a10.36,10.36,0,0,1-4.27.77c-4.56,0-8-2.88-8-8.19,0-5.06,3.43-8.5,8.45-8.5a8.67,8.67,0,0,1,3.84.72l-.5,1.7a7.61,7.61,0,0,0-3.27-.67c-3.79,0-6.31,2.42-6.31,6.67,0,4,2.28,6.5,6.22,6.5a8.36,8.36,0,0,0,3.41-.67Z" transform="translate(-14.94 -17.74)"/><path class="cls-4" d="M280.5,37a3.72,3.72,0,0,0,4,4,7.64,7.64,0,0,0,3.22-.6l.36,1.51a9.41,9.41,0,0,1-3.86.72c-3.58,0-5.71-2.35-5.71-5.86s2.06-6.26,5.45-6.26c3.79,0,4.8,3.34,4.8,5.47a8,8,0,0,1-.07,1H280.5Zm6.19-1.51c0-1.34-.55-3.43-2.93-3.43-2.14,0-3.07,2-3.24,3.43Z" transform="translate(-14.94 -17.74)"/><path class="cls-4" d="M291.35,34c0-1.2,0-2.18-.1-3.15h1.87l.12,1.92h0a4.27,4.27,0,0,1,3.84-2.18c1.61,0,4.1,1,4.1,4.94v6.94h-2.11v-6.7c0-1.87-.7-3.43-2.69-3.43a3,3,0,0,0-2.83,2.16,3,3,0,0,0-.14,1v7h-2.11V34Z" transform="translate(-14.94 -17.74)"/><path class="cls-4" d="M307.12,27.48v3.34h3v1.61h-3v6.26c0,1.44.41,2.26,1.58,2.26a4.7,4.7,0,0,0,1.22-.14l.1,1.58a5.17,5.17,0,0,1-1.87.29,2.93,2.93,0,0,1-2.28-.89,4.3,4.3,0,0,1-.82-3V32.42h-1.8V30.82h1.8V28Z" transform="translate(-14.94 -17.74)"/><path class="cls-4" d="M313.55,37a3.72,3.72,0,0,0,4,4,7.64,7.64,0,0,0,3.22-.6l.36,1.51a9.41,9.41,0,0,1-3.86.72c-3.58,0-5.71-2.35-5.71-5.86s2.06-6.26,5.45-6.26c3.79,0,4.8,3.34,4.8,5.47a8,8,0,0,1-.07,1h-8.16Zm6.19-1.51c0-1.34-.55-3.43-2.93-3.43-2.14,0-3.07,2-3.24,3.43Z" transform="translate(-14.94 -17.74)"/><path class="cls-4" d="M324.4,34.44c0-1.37,0-2.54-.1-3.63h1.85l.07,2.28h.1a3.49,3.49,0,0,1,3.22-2.54,2.3,2.3,0,0,1,.6.07v2a3.17,3.17,0,0,0-.72-.07,3,3,0,0,0-2.83,2.71,5.83,5.83,0,0,0-.1,1v6.19H324.4Z" transform="translate(-14.94 -17.74)"/><path class="cls-4" d="M337.55,42.43v-10h-1.63V30.82h1.63v-.55a5.47,5.47,0,0,1,1.34-4.06,4,4,0,0,1,2.83-1.08,4.9,4.9,0,0,1,1.8.34l-.29,1.63a3.15,3.15,0,0,0-1.34-.26c-1.8,0-2.26,1.58-2.26,3.36v.62h2.81v1.61h-2.81v10h-2.09Z" transform="translate(-14.94 -17.74)"/><path class="cls-4" d="M354.54,36.53c0,4.3-3,6.17-5.78,6.17-3.14,0-5.57-2.3-5.57-6,0-3.89,2.54-6.17,5.76-6.17S354.54,33,354.54,36.53Zm-9.22.12c0,2.54,1.46,4.46,3.53,4.46s3.53-1.9,3.53-4.51c0-2-1-4.46-3.48-4.46S345.33,34.44,345.33,36.65Z" transform="translate(-14.94 -17.74)"/><path class="cls-4" d="M357.21,34.44c0-1.37,0-2.54-.1-3.63H359l.07,2.28h.1a3.48,3.48,0,0,1,3.22-2.54,2.3,2.3,0,0,1,.6.07v2a3.19,3.19,0,0,0-.72-.07,3,3,0,0,0-2.83,2.71,6,6,0,0,0-.1,1v6.19h-2.09Z" transform="translate(-14.94 -17.74)"/><path class="cls-4" d="M225.06,56.83h-4.92V55.06h12v1.78h-4.94v14.4h-2.11V56.83Z" transform="translate(-14.94 -17.74)"/><path class="cls-4" d="M232.77,63.24c0-1.37,0-2.54-.1-3.62h1.85l.07,2.28h.1a3.48,3.48,0,0,1,3.22-2.54,2.3,2.3,0,0,1,.6.07v2a3.19,3.19,0,0,0-.72-.07A3,3,0,0,0,235,64.05a5.94,5.94,0,0,0-.1,1v6.19h-2.09Z" transform="translate(-14.94 -17.74)"/><path class="cls-4" d="M246.93,71.23l-.17-1.46h-.07a4.33,4.33,0,0,1-3.55,1.73,3.31,3.31,0,0,1-3.55-3.34c0-2.81,2.5-4.35,7-4.32V63.6a2.39,2.39,0,0,0-2.64-2.69,5.79,5.79,0,0,0-3,.86l-.48-1.39a7.21,7.21,0,0,1,3.82-1c3.55,0,4.42,2.42,4.42,4.75v4.35a16.46,16.46,0,0,0,.19,2.78Zm-.31-5.93c-2.3,0-4.92.36-4.92,2.62a1.87,1.87,0,0,0,2,2A2.89,2.89,0,0,0,246.5,68a2.2,2.2,0,0,0,.12-.67Z" transform="translate(-14.94 -17.74)"/><path class="cls-4" d="M252.06,62.76c0-1.2,0-2.18-.1-3.15h1.87l.12,1.92h0a4.27,4.27,0,0,1,3.84-2.19c1.61,0,4.1,1,4.1,4.94v6.94h-2.11v-6.7c0-1.87-.7-3.43-2.69-3.43a3.1,3.1,0,0,0-3,3.14v7h-2.11V62.76Z" transform="translate(-14.94 -17.74)"/><path class="cls-4" d="M265.1,69.07a5.54,5.54,0,0,0,2.78.84c1.54,0,2.26-.77,2.26-1.73s-.6-1.56-2.16-2.14c-2.09-.74-3.07-1.9-3.07-3.29,0-1.87,1.51-3.41,4-3.41a5.8,5.8,0,0,1,2.86.72l-.53,1.54a4.52,4.52,0,0,0-2.38-.67c-1.25,0-1.94.72-1.94,1.58s.7,1.39,2.21,2c2,.77,3,1.78,3,3.5,0,2-1.58,3.48-4.35,3.48a6.63,6.63,0,0,1-3.27-.79Z" transform="translate(-14.94 -17.74)"/><path class="cls-4" d="M274.89,63.41c0-1.49,0-2.69-.1-3.79h1.9l.1,2h0A4.57,4.57,0,0,1,281,59.35c2.81,0,4.92,2.38,4.92,5.9,0,4.18-2.55,6.24-5.28,6.24A4.08,4.08,0,0,1,277,69.67h0V76h-2.09V63.41ZM277,66.5a4.66,4.66,0,0,0,.1.86,3.26,3.26,0,0,0,3.17,2.47c2.23,0,3.53-1.82,3.53-4.49,0-2.33-1.23-4.32-3.46-4.32a3.37,3.37,0,0,0-3.19,2.62,3.43,3.43,0,0,0-.14.86v2Z" transform="translate(-14.94 -17.74)"/><path class="cls-4" d="M299.06,65.33c0,4.3-3,6.17-5.79,6.17-3.14,0-5.57-2.3-5.57-6,0-3.89,2.54-6.17,5.76-6.17S299.06,61.77,299.06,65.33Zm-9.22.12c0,2.54,1.46,4.46,3.53,4.46s3.53-1.9,3.53-4.51c0-2-1-4.47-3.48-4.47S289.84,63.24,289.84,65.45Z" transform="translate(-14.94 -17.74)"/><path class="cls-4" d="M301.72,63.24c0-1.37,0-2.54-.1-3.62h1.85l.07,2.28h.1a3.48,3.48,0,0,1,3.22-2.54,2.3,2.3,0,0,1,.6.07v2a3.19,3.19,0,0,0-.72-.07,3,3,0,0,0-2.83,2.71,5.94,5.94,0,0,0-.1,1v6.19h-2.09Z" transform="translate(-14.94 -17.74)"/><path class="cls-4" d="M312.69,56.28v3.34h3v1.61h-3v6.26c0,1.44.41,2.26,1.58,2.26a4.7,4.7,0,0,0,1.22-.14l.1,1.58a5.17,5.17,0,0,1-1.87.29,2.92,2.92,0,0,1-2.28-.89,4.3,4.3,0,0,1-.82-3V61.22h-1.8V59.61h1.8V56.83Z" transform="translate(-14.94 -17.74)"/><path class="cls-4" d="M324.52,71.23l-.17-1.46h-.07a4.33,4.33,0,0,1-3.55,1.73,3.31,3.31,0,0,1-3.55-3.34c0-2.81,2.5-4.35,7-4.32V63.6a2.39,2.39,0,0,0-2.64-2.69,5.79,5.79,0,0,0-3,.86L318,60.38a7.21,7.21,0,0,1,3.82-1c3.55,0,4.42,2.42,4.42,4.75v4.35a16.46,16.46,0,0,0,.19,2.78Zm-.31-5.93c-2.3,0-4.92.36-4.92,2.62a1.87,1.87,0,0,0,2,2A2.89,2.89,0,0,0,324.09,68a2.2,2.2,0,0,0,.12-.67Z" transform="translate(-14.94 -17.74)"/><path class="cls-4" d="M332.1,56.28v3.34h3v1.61h-3v6.26c0,1.44.41,2.26,1.58,2.26a4.7,4.7,0,0,0,1.22-.14l.1,1.58a5.17,5.17,0,0,1-1.87.29,2.92,2.92,0,0,1-2.28-.89,4.3,4.3,0,0,1-.82-3V61.22h-1.8V59.61H330V56.83Z" transform="translate(-14.94 -17.74)"/><path class="cls-4" d="M339.85,56.35a1.31,1.31,0,0,1-2.62,0A1.29,1.29,0,0,1,338.56,55,1.25,1.25,0,0,1,339.85,56.35ZM337.5,71.23V59.61h2.11V71.23Z" transform="translate(-14.94 -17.74)"/><path class="cls-4" d="M353.63,65.33c0,4.3-3,6.17-5.78,6.17-3.14,0-5.57-2.3-5.57-6,0-3.89,2.54-6.17,5.76-6.17S353.63,61.77,353.63,65.33Zm-9.22.12c0,2.54,1.46,4.46,3.53,4.46s3.53-1.9,3.53-4.51c0-2-1-4.47-3.48-4.47S344.41,63.24,344.41,65.45Z" transform="translate(-14.94 -17.74)"/><path class="cls-4" d="M356.29,62.76c0-1.2,0-2.18-.1-3.15h1.87l.12,1.92h0a4.27,4.27,0,0,1,3.84-2.19c1.61,0,4.1,1,4.1,4.94v6.94h-2.11v-6.7c0-1.87-.7-3.43-2.69-3.43a3.1,3.1,0,0,0-3,3.14v7h-2.11Z" transform="translate(-14.94 -17.74)"/><path class="cls-4" d="M384.9,71.23c-.46-.46-.89-.91-1.51-1.58a6.63,6.63,0,0,1-4.73,1.85c-3.15,0-5-2.11-5-4.54a5.31,5.31,0,0,1,3.17-4.73v-.07a5.56,5.56,0,0,1-1.34-3.38,3.92,3.92,0,0,1,4.1-4,3.37,3.37,0,0,1,3.58,3.43c0,1.7-1,3-3.55,4.32v.07c1.37,1.58,2.9,3.36,3.94,4.51a11.88,11.88,0,0,0,1.56-4.73h1.92a12.3,12.3,0,0,1-2.33,6c.86.91,1.7,1.82,2.66,2.86Zm-2.54-2.78c-1-1.06-2.76-3-4.56-5.09a4,4,0,0,0-2.09,3.29A3.19,3.19,0,0,0,379,69.91,4.52,4.52,0,0,0,382.36,68.45Zm-4.92-9.86a4.53,4.53,0,0,0,1.22,2.9c1.63-.94,2.69-1.8,2.69-3.17a1.91,1.91,0,0,0-1.87-2.09A2.11,2.11,0,0,0,377.44,58.58Z" transform="translate(-14.94 -17.74)"/><path class="cls-4" d="M394.38,55.05h2.09V69.48h6.91v1.75h-9V55.05Z" transform="translate(-14.94 -17.74)"/><path class="cls-4" d="M415.81,65.33c0,4.3-3,6.17-5.78,6.17-3.15,0-5.57-2.3-5.57-6,0-3.89,2.54-6.17,5.76-6.17S415.81,61.77,415.81,65.33Zm-9.22.12c0,2.54,1.46,4.46,3.53,4.46s3.53-1.9,3.53-4.51c0-2-1-4.47-3.48-4.47S406.6,63.24,406.6,65.45Z" transform="translate(-14.94 -17.74)"/><path class="cls-4" d="M428.49,59.61c0,.84-.1,1.78-.1,3.19v6.75c0,2.66-.53,4.3-1.66,5.3a6.16,6.16,0,0,1-4.22,1.39,7.5,7.5,0,0,1-3.86-1l.53-1.61a6.55,6.55,0,0,0,3.41.91c2.16,0,3.74-1.13,3.74-4.06v-1.3h0a4.15,4.15,0,0,1-3.7,1.94c-2.88,0-4.94-2.45-4.94-5.67,0-3.94,2.57-6.17,5.23-6.17a3.86,3.86,0,0,1,3.62,2h0l.1-1.75ZM426.3,64.2A3.09,3.09,0,0,0,423.23,61c-2,0-3.46,1.7-3.46,4.39,0,2.28,1.15,4.18,3.43,4.18a3.09,3.09,0,0,0,2.93-2.16,3.67,3.67,0,0,0,.17-1.13V64.2Z" transform="translate(-14.94 -17.74)"/><path class="cls-4" d="M434.1,56.35a1.31,1.31,0,0,1-2.62,0A1.29,1.29,0,0,1,432.8,55,1.25,1.25,0,0,1,434.1,56.35Zm-2.35,14.88V59.61h2.11V71.23Z" transform="translate(-14.94 -17.74)"/><path class="cls-4" d="M437.08,69.07a5.54,5.54,0,0,0,2.78.84c1.54,0,2.26-.77,2.26-1.73s-.6-1.56-2.16-2.14c-2.09-.74-3.07-1.9-3.07-3.29,0-1.87,1.51-3.41,4-3.41a5.79,5.79,0,0,1,2.86.72l-.53,1.54a4.52,4.52,0,0,0-2.38-.67c-1.25,0-1.94.72-1.94,1.58s.7,1.39,2.21,2c2,.77,3,1.78,3,3.5,0,2-1.58,3.48-4.34,3.48a6.63,6.63,0,0,1-3.26-.79Z" transform="translate(-14.94 -17.74)"/><path class="cls-4" d="M449.41,56.28v3.34h3v1.61h-3v6.26c0,1.44.41,2.26,1.58,2.26a4.7,4.7,0,0,0,1.22-.14l.1,1.58a5.17,5.17,0,0,1-1.87.29,2.92,2.92,0,0,1-2.28-.89,4.3,4.3,0,0,1-.82-3V61.22h-1.8V59.61h1.8V56.83Z" transform="translate(-14.94 -17.74)"/><path class="cls-4" d="M457.16,56.35a1.31,1.31,0,0,1-2.62,0A1.29,1.29,0,0,1,455.87,55,1.25,1.25,0,0,1,457.16,56.35Zm-2.35,14.88V59.61h2.11V71.23Z" transform="translate(-14.94 -17.74)"/><path class="cls-4" d="M468.71,70.8a7.78,7.78,0,0,1-3.34.67c-3.51,0-5.78-2.38-5.78-5.93a5.9,5.9,0,0,1,6.24-6.17,7.06,7.06,0,0,1,2.93.6l-.48,1.63a4.9,4.9,0,0,0-2.45-.55c-2.66,0-4.1,2-4.1,4.39,0,2.69,1.73,4.34,4,4.34a6,6,0,0,0,2.59-.58Z" transform="translate(-14.94 -17.74)"/><path class="cls-4" d="M470.89,69.07a5.53,5.53,0,0,0,2.78.84c1.54,0,2.26-.77,2.26-1.73s-.6-1.56-2.16-2.14c-2.09-.74-3.07-1.9-3.07-3.29,0-1.87,1.51-3.41,4-3.41a5.79,5.79,0,0,1,2.86.72L477,61.61a4.52,4.52,0,0,0-2.38-.67c-1.25,0-1.94.72-1.94,1.58s.7,1.39,2.21,2c2,.77,3,1.78,3,3.5,0,2-1.58,3.48-4.34,3.48a6.63,6.63,0,0,1-3.26-.79Z" transform="translate(-14.94 -17.74)"/></svg>